<svg width="100" height="100" viewBox="0 0 100 100" fill="none" xmlns="http://www.w3.org/2000/svg">
<path fill-rule="evenodd" clip-rule="evenodd" d="M50 100C77.6142 100 100 77.6142 100 50C100 22.3858 77.6142 0 50 0C22.3858 0 0 22.3858 0 50C0 77.6142 22.3858 100 50 100Z" fill="#FFF3E0"/>
<path fill-rule="evenodd" clip-rule="evenodd" d="M50 100C77.6142 100 100 77.6142 100 50C100 22.3858 77.6142 0 50 0C22.3858 0 0 22.3858 0 50C0 77.6142 22.3858 100 50 100ZM67.6777 43.904L59.7227 35.9491L51.7678 27.9941C50.7915 27.0178 49.2085 27.0178 48.2322 27.9941L32.3223 43.904C31.346 44.8804 31.346 46.4633 32.3223 47.4396C33.2986 48.4159 34.8816 48.4159 35.8579 47.4396L47.5 35.7974V69.0476C47.5 70.4283 48.6193 71.5476 50 71.5476C51.3807 71.5476 52.5 70.4283 52.5 69.0476V35.7974L64.1421 47.4396C65.1184 48.4159 66.7014 48.4159 67.6777 47.4396C68.654 46.4633 68.654 44.8804 67.6777 43.904Z" fill="#104547"/>
</svg>
